<?xml version="1.0" encoding="utf-8"?>
<!-- Generator: Adobe Illustrator 18.0.0, SVG Export Plug-In . SVG Version: 6.00 Build 0)  -->
<!DOCTYPE svg PUBLIC "-//W3C//DTD SVG 1.1//EN" "http://www.w3.org/Graphics/SVG/1.1/DTD/svg11.dtd">
<svg version="1.1" id="Layer_1" xmlns="http://www.w3.org/2000/svg" xmlns:xlink="http://www.w3.org/1999/xlink" x="0px" y="0px"
	 width="1400px" height="980px" viewBox="0 0 1400 980" enable-background="new 0 0 1400 980" xml:space="preserve">
<g>
	<circle cx="210.9" cy="341.3" r="120.1"/>
	<circle fill="#FFFFFF" cx="210.9" cy="341.3" r="77.6"/>
	<g>
		<path fill="#939598" d="M253.6,352.8h34.1c0.6-3.8,0.9-7.6,0.9-11.5c0-3.9-0.3-7.7-0.9-11.5h-34.1c-5.5,0-8.3-6.6-4.4-10.5
			l24.1-24.1c-4.6-6.2-10.1-11.7-16.3-16.3L233,303c-3.9,3.9-10.5,1.1-10.5-4.4v-34.1c-3.8-0.6-7.6-0.9-11.5-0.9
			c-3.9,0-7.7,0.3-11.5,0.9v34.1c0,5.5-6.6,8.3-10.5,4.4l-24.1-24.1c-6.2,4.6-11.7,10.1-16.3,16.3l24.1,24.1
			c3.9,3.9,1.1,10.5-4.4,10.5h-34.1c-0.6,3.8-0.9,7.6-0.9,11.5c0,3.9,0.3,7.7,0.9,11.5h34.1c5.5,0,8.3,6.6,4.4,10.5l-24.1,24.1
			c4.6,6.2,10.1,11.7,16.3,16.3l24.1-24.1c3.9-3.9,10.5-1.1,10.5,4.4v34.1c3.8,0.6,7.6,0.9,11.5,0.9c3.9,0,7.7-0.3,11.5-0.9v-34.1
			c0-5.5,6.6-8.3,10.5-4.4l24.1,24.1c6.2-4.6,11.7-10.1,16.3-16.3l-24.1-24.1C245.3,359.4,248.1,352.8,253.6,352.8z"/>
	</g>
	<circle fill="#FFFFFF" cx="210.9" cy="309.1" r="4.4"/>
	<circle fill="#FFFFFF" cx="233.7" cy="318.5" r="4.4"/>
	<circle fill="#FFFFFF" cx="243.2" cy="341.3" r="4.4"/>
	<circle fill="#FFFFFF" cx="233.7" cy="364.1" r="4.4"/>
	<circle fill="#FFFFFF" cx="210.9" cy="373.5" r="4.4"/>
	<circle fill="#FFFFFF" cx="188.1" cy="364.1" r="4.4"/>
	<circle fill="#FFFFFF" cx="178.7" cy="341.3" r="4.4"/>
	<circle fill="#FFFFFF" cx="188.1" cy="318.5" r="4.4"/>
</g>
<g>
	<path fill="#8DC63F" d="M406.4,361.3v-23.2c0-9.9,7.1-18.5,16.8-20.3l109.5-21l29.9-30.4c8.3-8.4,19.7-13,31.5-12.6l66.4,2.2
		c21.2,0.7,40.8,11.1,53.3,28.3l2.9,4c4.1,5.6,9.7,9.8,16.2,12.2l25.3,9.1c6,2.1,9.9,7.8,9.9,14.1v37.6c0,6.5-5.3,11.8-11.8,11.8
		H418.2C411.7,373.1,406.4,367.8,406.4,361.3z"/>
	<path fill="#669A40" d="M732.9,348.1c-7.7-9.8-19.7-16.1-33.1-16.1s-25.4,6.3-33.1,16.1H513.6c-7.7-9.8-19.7-16.1-33.1-16.1
		c-13.4,0-25.4,6.3-33.1,16.1h-41v13.2c0,6.5,5.3,11.8,11.8,11.8h20.2h84.2h135.1h84.2h14.6c6.5,0,11.8-5.3,11.8-11.8v-13.2H732.9z"
		/>
	<path fill="#FFFFFF" d="M670.5,301.6h50.3c-3.6-2.6-6.8-5.7-9.5-9.4l-2.9-4c-10.5-14.5-26.5-23.6-44.2-25.2v32.4
		C664.2,298.8,667,301.6,670.5,301.6z"/>
	<path fill="#FFFFFF" d="M657.6,262.6l-51.6-1.7v34.4c0,3.5,2.8,6.3,6.3,6.3h39.1c3.5,0,6.3-2.8,6.3-6.3V262.6z"/>
	<path fill="#FFFFFF" d="M599.4,260.7l-5.4-0.2c-0.5,0-0.9,0-1.4,0c-9.5,0.1-18.6,4-25.3,10.8l-29.7,30.3h55.6
		c3.5,0,6.3-2.8,6.3-6.3V260.7z"/>
	<path fill="#FFFFFF" d="M440.6,325.2h-18.9c-5.1,2.1-8.6,7.2-8.6,12.9v2.3h27.4V325.2z"/>
	<path fill="#FFFFFF" d="M745.1,341.4c0.5,0.3,0.9,0.5,1.4,0.8h15v-16.6c0-5.1-4.1-9.2-9.2-9.2h-22
		C731.1,326.4,736.4,336.2,745.1,341.4z"/>
	<path fill="#FFFFFF" d="M438.6,347h-23.4c-1.1,0-2,0.9-2,2l0,0c0,1.1,0.9,2,2,2h23.4c1.1,0,2-0.9,2-2l0,0
		C440.6,347.9,439.8,347,438.6,347z"/>
	<g>
		<circle fill="#FFFFFF" cx="480.5" cy="374.2" r="34.9"/>
		<circle cx="480.5" cy="374.2" r="30"/>
		<circle fill="#FFFFFF" cx="480.5" cy="374.2" r="19.4"/>
		<g>
			<path fill="#939598" d="M491.2,377h8.5c0.1-0.9,0.2-1.9,0.2-2.9s-0.1-1.9-0.2-2.9h-8.5c-1.4,0-2.1-1.7-1.1-2.6l6-6
				c-1.1-1.5-2.5-2.9-4.1-4.1l-6,6c-1,1-2.6,0.3-2.6-1.1V355c-0.9-0.1-1.9-0.2-2.9-0.2s-1.9,0.1-2.9,0.2v8.5c0,1.4-1.7,2.1-2.6,1.1
				l-6-6c-1.5,1.1-2.9,2.5-4.1,4.1l6,6c1,1,0.3,2.6-1.1,2.6h-8.5c-0.1,0.9-0.2,1.9-0.2,2.9s0.1,1.9,0.2,2.9h8.5
				c1.4,0,2.1,1.7,1.1,2.6l-6,6c1.1,1.5,2.5,2.9,4.1,4.1l6-6c1-1,2.6-0.3,2.6,1.1v8.5c0.9,0.1,1.9,0.2,2.9,0.2s1.9-0.1,2.9-0.2v-8.5
				c0-1.4,1.7-2.1,2.6-1.1l6,6c1.5-1.1,2.9-2.5,4.1-4.1l-6-6C489.1,378.7,489.8,377,491.2,377z"/>
		</g>
		<circle fill="#FFFFFF" cx="480.5" cy="366.1" r="1.1"/>
		<circle fill="#FFFFFF" cx="486.2" cy="368.5" r="1.1"/>
		<circle fill="#FFFFFF" cx="488.6" cy="374.2" r="1.1"/>
		<circle fill="#FFFFFF" cx="486.2" cy="379.9" r="1.1"/>
		<circle fill="#FFFFFF" cx="480.5" cy="382.2" r="1.1"/>
		<circle fill="#FFFFFF" cx="474.8" cy="379.9" r="1.1"/>
		<circle fill="#FFFFFF" cx="472.5" cy="374.2" r="1.1"/>
		<circle fill="#FFFFFF" cx="474.8" cy="368.5" r="1.1"/>
	</g>
	<g>
		<circle fill="#FFFFFF" cx="699.8" cy="374.2" r="34.9"/>
		<circle cx="699.8" cy="374.2" r="30"/>
		<circle fill="#FFFFFF" cx="699.8" cy="374.2" r="19.4"/>
		<g>
			<path fill="#939598" d="M710.5,377h8.5c0.1-0.9,0.2-1.9,0.2-2.9s-0.1-1.9-0.2-2.9h-8.5c-1.4,0-2.1-1.7-1.1-2.6l6-6
				c-1.1-1.5-2.5-2.9-4.1-4.1l-6,6c-1,1-2.6,0.3-2.6-1.1V355c-0.9-0.1-1.9-0.2-2.9-0.2c-1,0-1.9,0.1-2.9,0.2v8.5
				c0,1.4-1.7,2.1-2.6,1.1l-6-6c-1.5,1.1-2.9,2.5-4.1,4.1l6,6c1,1,0.3,2.6-1.1,2.6h-8.5c-0.1,0.9-0.2,1.9-0.2,2.9s0.1,1.9,0.2,2.9
				h8.5c1.4,0,2.1,1.7,1.1,2.6l-6,6c1.1,1.5,2.5,2.9,4.1,4.1l6-6c1-1,2.6-0.3,2.6,1.1v8.5c0.9,0.1,1.9,0.2,2.9,0.2
				c1,0,1.9-0.1,2.9-0.2v-8.5c0-1.4,1.7-2.1,2.6-1.1l6,6c1.5-1.1,2.9-2.5,4.1-4.1l-6-6C708.4,378.7,709.1,377,710.5,377z"/>
		</g>
		<circle fill="#FFFFFF" cx="699.8" cy="366.1" r="1.1"/>
		<circle fill="#FFFFFF" cx="705.5" cy="368.5" r="1.1"/>
		<circle fill="#FFFFFF" cx="707.9" cy="374.2" r="1.1"/>
		<circle fill="#FFFFFF" cx="705.5" cy="379.9" r="1.1"/>
		<circle fill="#FFFFFF" cx="699.8" cy="382.2" r="1.1"/>
		<circle fill="#FFFFFF" cx="694.1" cy="379.9" r="1.1"/>
		<circle fill="#FFFFFF" cx="691.8" cy="374.2" r="1.1"/>
		<circle fill="#FFFFFF" cx="694.1" cy="368.5" r="1.1"/>
	</g>
</g>
<g>
	<path fill="#8DC63F" d="M966.3,365.3l-83.6-83.6l-0.1,0.1c2.8-13.8-2.5-28.7-14.8-37.4c-8.5-6.1-18.7-8-28.2-6.2
		c-2.2,0.4-2.8,3.2-1,4.5l26.2,18.6l-2.3,24.6l-22.5,10.3l-26.2-18.6c-1.8-1.3-4.2,0.2-3.9,2.4c1.5,10.3,7.4,19.9,17,25.9
		c8.7,5.4,19,6.8,28.4,4.4l84.5,84.5l0,0c-0.3,11.4,5.8,22.5,16.5,28.1c7.4,3.8,15.5,4.4,22.9,2.2c2.1-0.6,2.4-3.6,0.4-4.6
		l-22.8-11.8l-0.9-20.5l17.3-11.1l22.8,11.8c2,1,4.2-0.9,3.5-3c-2.6-7.8-8.4-14.6-16.6-18.3C977.5,365.2,971.8,364.5,966.3,365.3z"
		/>
	<g>
		<path fill="#8DC63F" d="M983.8,281.7l-8.8-8.8l-8.8-8.8L824.4,390.7c-4.2,3.7-3.8,10.8,0.9,15.5l8.1,8.1l8.1,8.1
			c4.7,4.7,11.8,5.1,15.5,0.9L983.8,281.7z"/>
		<path d="M1016.9,326.9L994.3,283l-0.8-9.4L953,233c-2.1-2.1-5.5-2.1-7.5,0l-16.2,16.2c-2.1,2.1-2.1,5.5,0,7.5l78.2,78.2
			c1.3,1.3,3.5,1.3,4.8,0l4.1-4.1C1017.4,329.8,1017.6,328.2,1016.9,326.9z"/>
	</g>
</g>
<g>
	<path fill="#8DC63F" d="M1251.7,318c0.8-4.3,1.3-8.7,1.5-13.2l-9.7-6.8c-0.1-1.9-0.3-3.9-0.6-5.7l8.2-8.8c-1-4.2-2.3-8.3-3.9-12.3
		l-11.7-2.3c-1-1.9-2-3.7-3.1-5.5l3.9-11.4c-2.5-3.3-5.3-6.5-8.4-9.4l-11.6,2.7c-1.7-1.4-3.5-2.7-5.4-4l-1-11.9
		c-3.6-2-7.3-3.6-11.2-5.1l-9.5,7.2c-2.2-0.6-4.5-1.1-6.7-1.4l-5.8-10.4c-2-0.1-4.1-0.3-6.1-0.3c-2.1,0-4.1,0.1-6.1,0.3l-5.8,10.4
		c-2.3,0.4-4.5,0.9-6.7,1.4l-9.5-7.2c-3.9,1.4-7.6,3.1-11.2,5.1l-1,11.9c-1.9,1.2-3.6,2.6-5.4,4l-11.6-2.7c-3,2.9-5.8,6-8.4,9.4
		l3.9,11.4c-1.1,1.8-2.1,3.6-3.1,5.5l-11.7,2.3c-1.6,3.9-2.9,8-3.9,12.3l8.2,8.8c-0.3,1.9-0.5,3.8-0.6,5.7l-9.7,6.8
		c0.1,4.5,0.6,8.9,1.5,13.2l11.1,4.7c0.5,1.7,1.1,3.4,1.7,5l-6.1,10.2c2,4.1,4.3,8,6.9,11.7l12.1-0.2c1,1.2,2.1,2.4,3.2,3.5
		l-1.5,11.9c3.5,3,7.3,5.7,11.2,8.1l10.9-5.1c1.4,0.6,2.7,1.2,4.1,1.8l3.5,11.5c4.4,1.3,9,2.3,13.7,2.9l7.9-9.1
		c0.7,0,1.4,0.1,2.2,0.1s1.5,0,2.2-0.1l7.9,9.1c4.7-0.6,9.3-1.5,13.7-2.9l3.5-11.5c1.4-0.6,2.8-1.2,4.1-1.8l10.9,5.1
		c4-2.4,7.7-5.1,11.2-8.1l-1.5-11.9c1.1-1.1,2.2-2.3,3.2-3.5l12.1,0.2c2.6-3.7,4.9-7.6,6.9-11.7l-6.1-10.2c0.6-1.6,1.2-3.3,1.7-5
		L1251.7,318z M1232.8,302c0,34.3-27.8,62.1-62.1,62.1s-62.1-27.8-62.1-62.1s27.8-62.1,62.1-62.1S1232.8,267.7,1232.8,302z"/>
	<path fill="#669A40" d="M1308.4,392.7c0.4-2.3,0.7-4.7,0.8-7.1l-5.2-3.7c-0.1-1-0.2-2.1-0.3-3.1l4.4-4.7c-0.5-2.3-1.2-4.5-2.1-6.6
		l-6.3-1.2c-0.5-1-1.1-2-1.7-2.9l2.1-6.1c-1.4-1.8-2.9-3.5-4.5-5l-6.2,1.4c-0.9-0.8-1.9-1.5-2.9-2.1l-0.6-6.4c-1.9-1-3.9-2-6-2.7
		l-5.1,3.8c-1.2-0.3-2.4-0.6-3.6-0.8l-3.1-5.6c-1.1-0.1-2.2-0.1-3.3-0.1s-2.2,0.1-3.3,0.1l-3.1,5.6c-1.2,0.2-2.4,0.5-3.6,0.8
		l-5.1-3.8c-2.1,0.8-4.1,1.7-6,2.7l-0.6,6.4c-1,0.7-2,1.4-2.9,2.1l-6.2-1.4c-1.6,1.6-3.1,3.2-4.5,5l2.1,6.1c-0.6,1-1.1,1.9-1.7,2.9
		l-6.3,1.2c-0.9,2.1-1.5,4.3-2.1,6.6l4.4,4.7c-0.1,1-0.2,2-0.3,3.1l-5.2,3.7c0.1,2.4,0.3,4.8,0.8,7.1l6,2.5c0.3,0.9,0.6,1.8,0.9,2.7
		l-3.3,5.5c1.1,2.2,2.3,4.3,3.7,6.3l6.5-0.1c0.6,0.7,1.1,1.3,1.7,1.9l-0.8,6.4c1.9,1.6,3.9,3.1,6,4.3l5.9-2.7c0.7,0.3,1.5,0.7,2.2,1
		l1.9,6.2c2.4,0.7,4.8,1.2,7.3,1.5l4.2-4.9c0.4,0,0.8,0,1.2,0s0.8,0,1.2,0l4.2,4.9c2.5-0.3,5-0.8,7.3-1.5l1.9-6.2
		c0.8-0.3,1.5-0.6,2.2-1l5.9,2.7c2.1-1.3,4.1-2.7,6-4.3l-0.8-6.4c0.6-0.6,1.2-1.2,1.7-1.9l6.5,0.1c1.4-2,2.6-4.1,3.7-6.3l-3.3-5.5
		c0.3-0.9,0.6-1.8,0.9-2.7L1308.4,392.7z M1298.2,384.1c0,18.4-14.9,33.3-33.3,33.3s-33.3-14.9-33.3-33.3
		c0-18.4,14.9-33.3,33.3-33.3S1298.2,365.7,1298.2,384.1z"/>
</g>
<g>
	<rect x="104.3" y="670.4" fill="#939598" width="213.2" height="90.1"/>
	<rect x="97.4" y="633.4" fill="#669A40" width="227" height="30.9"/>
	<rect x="118.7" y="623.2" fill="#939598" width="13" height="6.5"/>
	<g>
		<rect x="255.8" y="692.3" fill="#FFFFFF" width="27.5" height="6"/>
		<polygon fill="#FFFFFF" points="155.3,681.6 149.3,681.6 149.3,692.3 138.6,692.3 138.6,698.4 149.3,698.4 149.3,709.1 
			155.3,709.1 155.3,698.4 166,698.4 166,692.3 155.3,692.3 		"/>
	</g>
	<rect x="290.1" y="623.2" fill="#939598" width="13" height="6.5"/>
</g>
<g>
	<path fill="#669A40" d="M661.2,636.3l-25.7-8.6c-0.7-0.2-1.4-0.3-2.1-0.3H498.3c-3.3,0-5.9,2.6-5.9,5.9v18.9c0,3.3,2.6,5.9,5.9,5.9
		h7.4c5.1,0,8.7,5.1,6.9,9.9l-22.4,60.2c-0.5,1.5-1.9,2.4-3.5,2.4c-1.5,0-2.7,1.2-2.7,2.7v9.8c0,1.5,1.2,2.7,2.7,2.7h65.5
		c1.5,0,2.7-1.2,2.7-2.7v-9.8c0-1.5-1.2-2.7-2.7-2.7h-1.3c-5.1,0-8.7-5.1-6.9-9.9l19.9-53.4c2.1-5.5,7.3-9.2,13.2-9.2h56.3
		c0.7,0,1.4-0.1,2.1-0.3l25.7-8.6c2.7-0.9,4.5-3.4,4.5-6.3v-0.2C665.8,639.8,663.9,637.2,661.2,636.3z"/>
	<path fill="#939598" d="M581.7,660.9c-9.8,0.5-12.6,6.9-12.6,6.9c1.6,11.9,6.6,17.4,11,19.9c2.3,1.3,4.9-1.1,3.8-3.6
		C578.4,671.8,581.7,660.9,581.7,660.9z"/>
	<path fill="#939598" d="M538.7,622H549h10.3l17.5-20.8c2-2.3,3.1-5.3,3.1-8.4v-41.5c0-2.7-2.2-4.9-4.9-4.9H549h-25.9
		c-2.7,0-4.9,2.2-4.9,4.9v41.5c0,3.1,1.1,6,3.1,8.4L538.7,622z M522.1,551.3c0-0.5,0.4-1,1-1h51.8c0.5,0,1,0.4,1,1v36.9
		c-6.5,2-13.2,2.9-20,2.2c-9.5-0.9-17.4-5.1-26.4-7.4c-2.1-0.5-4.6-1-7.3-1.2V551.3z"/>
	<path fill="#939598" d="M714.1,640h-7.5c-1.4,0-2.5,1.1-2.5,2.5s1.1,2.5,2.5,2.5h7.5c1.4,0,2.5-1.1,2.5-2.5S715.5,640,714.1,640z"
		/>
	<path fill="#939598" d="M703,642.4c0-1.4-1.1-2.5-2.5-2.5h-6.1c-1.4,0-2.5,1.1-2.5,2.5s1.1,2.5,2.5,2.5h6.1
		C701.9,644.9,703,643.8,703,642.4z"/>
	<path fill="#939598" d="M691.5,642.4c0-1.4-1.1-2.5-2.5-2.5h-13.6c-1.4,0-2.5,1.1-2.5,2.5s1.1,2.5,2.5,2.5H689
		C690.4,644.9,691.5,643.8,691.5,642.4z"/>
	<path fill="#939598" d="M701.7,624.9c0.4,1,1.3,1.6,2.3,1.6c0.3,0,0.6-0.1,0.9-0.2l6.4-2.5c1.3-0.5,1.9-1.9,1.4-3.2
		c-0.5-1.3-1.9-1.9-3.2-1.4l-6.3,2.5C701.8,622.3,701.2,623.7,701.7,624.9z"/>
	<path fill="#939598" d="M693.2,630.7c0.3,0,0.6-0.1,0.9-0.2l5.1-2c1.3-0.5,1.9-1.9,1.4-3.2c-0.5-1.3-1.9-1.9-3.2-1.4l-5.1,2
		c-1.3,0.5-1.9,1.9-1.4,3.2C691.3,630.1,692.2,630.7,693.2,630.7z"/>
	<path fill="#939598" d="M674.1,638.2c0.3,0,0.6-0.1,0.9-0.2l13.3-5.2c1.3-0.5,1.9-1.9,1.4-3.2c-0.5-1.3-1.9-1.9-3.2-1.4l-13.3,5.2
		c-1.3,0.5-1.9,1.9-1.4,3.2C672.2,637.6,673.2,638.2,674.1,638.2z"/>
	<path fill="#939598" d="M694.7,610.1c0.6,0,1.2-0.2,1.7-0.7l4.5-4.2c1-0.9,1.1-2.5,0.1-3.5c-0.9-1-2.5-1.1-3.5-0.1l-4.5,4.2
		c-1,0.9-1.1,2.5-0.1,3.5C693.4,609.9,694,610.1,694.7,610.1z"/>
	<path fill="#939598" d="M686.2,618c0.6,0,1.2-0.2,1.7-0.7l4-3.7c1-0.9,1.1-2.5,0.1-3.5c-0.9-1-2.5-1.1-3.5-0.1l-4,3.7
		c-1,0.9-1.1,2.5-0.1,3.5C684.9,617.8,685.5,618,686.2,618z"/>
	<path fill="#939598" d="M671.6,631.5c0.6,0,1.2-0.2,1.7-0.7l10.5-9.8c1-0.9,1.1-2.5,0.1-3.5c-0.9-1-2.5-1.1-3.5-0.1l-10.5,9.8
		c-1,0.9-1.1,2.5-0.1,3.5C670.3,631.2,671,631.5,671.6,631.5z"/>
	<path fill="#939598" d="M711.2,661l-6.4-2.5c-1.3-0.5-2.7,0.1-3.2,1.4c-0.5,1.3,0.1,2.7,1.4,3.2l6.4,2.5c0.3,0.1,0.6,0.2,0.9,0.2
		c1,0,1.9-0.6,2.3-1.6C713.1,663,712.5,661.5,711.2,661z"/>
	<path fill="#939598" d="M692.3,658.9l5.1,2c0.3,0.1,0.6,0.2,0.9,0.2c1,0,1.9-0.6,2.3-1.6c0.5-1.3-0.1-2.7-1.4-3.2l-5.1-2
		c-1.3-0.5-2.7,0.1-3.2,1.4C690.4,657,691,658.4,692.3,658.9z"/>
	<path fill="#939598" d="M673.2,651.4l14,5.5c0.3,0.1,0.6,0.2,0.9,0.2c1,0,1.9-0.6,2.3-1.6c0.5-1.3-0.1-2.7-1.4-3.2l-14-5.5
		c-1.3-0.5-2.7,0.1-3.2,1.4C671.4,649.5,672,650.9,673.2,651.4z"/>
	<path fill="#939598" d="M697.9,676.8c-1-0.9-2.6-0.9-3.5,0.1c-0.9,1-0.9,2.6,0.1,3.5l3,2.8c0.5,0.4,1.1,0.7,1.7,0.7
		c0.7,0,1.3-0.3,1.8-0.8c0.9-1,0.9-2.6-0.1-3.5L697.9,676.8z"/>
	<path fill="#939598" d="M693.4,672.6l-3.5-3.3c-1-0.9-2.6-0.9-3.5,0.1c-0.9,1-0.9,2.6,0.1,3.5l3.5,3.3c0.5,0.4,1.1,0.7,1.7,0.7
		c0.7,0,1.3-0.3,1.8-0.8C694.4,675.1,694.4,673.5,693.4,672.6z"/>
	<path fill="#939598" d="M685.3,665.2l-12-11.1c-1-0.9-2.6-0.9-3.5,0.1c-0.9,1-0.9,2.6,0.1,3.5l12,11.1c0.5,0.4,1.1,0.7,1.7,0.7
		c0.7,0,1.3-0.3,1.8-0.8C686.4,667.7,686.3,666.1,685.3,665.2z"/>
</g>
<g>
	<rect x="772.6" y="572.9" width="200" height="114.2"/>
	<rect x="780.1" y="580.4" fill="#FFFFFF" width="184.9" height="99"/>
	<polygon fill="#8DC63F" points="972.6,687 872.1,687 771.7,687 741.5,742.6 872.1,742.6 1002.8,742.6 	"/>
	<rect x="741.5" y="742.6" fill="#669A40" width="261.3" height="13.1"/>
	<g>
		<path fill="#8DC63F" d="M790.2,634.8v-6.2c0-2.7,1.9-4.9,4.5-5.4l29.3-5.6l8-8.2c2.2-2.3,5.3-3.5,8.4-3.4l17.8,0.6
			c5.7,0.2,10.9,3,14.3,7.6l0.8,1.1c1.1,1.5,2.6,2.6,4.3,3.3l6.8,2.4c1.6,0.6,2.7,2.1,2.7,3.8v10.1c0,1.7-1.4,3.2-3.2,3.2h-90.6
			C791.6,638,790.2,636.6,790.2,634.8z"/>
		<path fill="#669A40" d="M877.6,631.3c-2.1-2.6-5.3-4.3-8.9-4.3c-3.6,0-6.8,1.7-8.9,4.3h-41c-2.1-2.6-5.3-4.3-8.9-4.3
			c-3.6,0-6.8,1.7-8.9,4.3h-11v3.5c0,1.7,1.4,3.2,3.2,3.2h5.4h22.6h36.2h22.6h3.9c1.7,0,3.2-1.4,3.2-3.2v-3.5H877.6z"/>
		<path fill="#FFFFFF" d="M860.9,618.8h13.5c-1-0.7-1.8-1.5-2.5-2.5l-0.8-1.1c-2.8-3.9-7.1-6.3-11.8-6.8v8.7
			C859.2,618.1,860,618.8,860.9,618.8z"/>
		<path fill="#FFFFFF" d="M857.5,608.4l-13.8-0.5v9.2c0,0.9,0.8,1.7,1.7,1.7h10.5c0.9,0,1.7-0.8,1.7-1.7V608.4z"/>
		<path fill="#FFFFFF" d="M841.9,607.9l-1.4,0c-0.1,0-0.2,0-0.4,0c-2.6,0-5,1.1-6.8,2.9l-8,8.1h14.9c0.9,0,1.7-0.8,1.7-1.7V607.9z"
			/>
		<path fill="#FFFFFF" d="M799.4,625.2h-5.1c-1.4,0.6-2.3,1.9-2.3,3.4v0.6h7.4V625.2z"/>
		<path fill="#FFFFFF" d="M880.9,629.5c0.1,0.1,0.2,0.1,0.4,0.2h4v-4.4c0-1.4-1.1-2.5-2.5-2.5H877
			C877.2,625.5,878.6,628.1,880.9,629.5z"/>
		<path fill="#FFFFFF" d="M798.8,631h-6.3c-0.3,0-0.5,0.2-0.5,0.5l0,0c0,0.3,0.2,0.5,0.5,0.5h6.3c0.3,0,0.5-0.2,0.5-0.5l0,0
			C799.4,631.3,799.1,631,798.8,631z"/>
		<g>
			<circle fill="#FFFFFF" cx="810" cy="638.3" r="9.4"/>
			<circle cx="810" cy="638.3" r="8"/>
			<circle fill="#FFFFFF" cx="810" cy="638.3" r="5.2"/>
			<g>
				<path fill="#939598" d="M812.9,639.1h2.3c0-0.3,0.1-0.5,0.1-0.8c0-0.3,0-0.5-0.1-0.8h-2.3c-0.4,0-0.6-0.4-0.3-0.7l1.6-1.6
					c-0.3-0.4-0.7-0.8-1.1-1.1l-1.6,1.6c-0.3,0.3-0.7,0.1-0.7-0.3v-2.3c-0.3,0-0.5-0.1-0.8-0.1c-0.3,0-0.5,0-0.8,0.1v2.3
					c0,0.4-0.4,0.6-0.7,0.3l-1.6-1.6c-0.4,0.3-0.8,0.7-1.1,1.1l1.6,1.6c0.3,0.3,0.1,0.7-0.3,0.7h-2.3c0,0.3-0.1,0.5-0.1,0.8
					c0,0.3,0,0.5,0.1,0.8h2.3c0.4,0,0.6,0.4,0.3,0.7l-1.6,1.6c0.3,0.4,0.7,0.8,1.1,1.1l1.6-1.6c0.3-0.3,0.7-0.1,0.7,0.3v2.3
					c0.3,0,0.5,0.1,0.8,0.1c0.3,0,0.5,0,0.8-0.1v-2.3c0-0.4,0.4-0.6,0.7-0.3l1.6,1.6c0.4-0.3,0.8-0.7,1.1-1.1l-1.6-1.6
					C812.3,639.5,812.5,639.1,812.9,639.1z"/>
			</g>
			<circle fill="#FFFFFF" cx="810" cy="636.1" r="0.3"/>
			<circle fill="#FFFFFF" cx="811.6" cy="636.8" r="0.3"/>
			<circle fill="#FFFFFF" cx="812.2" cy="638.3" r="0.3"/>
			<circle fill="#FFFFFF" cx="811.6" cy="639.8" r="0.3"/>
			<circle fill="#FFFFFF" cx="810" cy="640.4" r="0.3"/>
			<circle fill="#FFFFFF" cx="808.5" cy="639.8" r="0.3"/>
			<circle fill="#FFFFFF" cx="807.9" cy="638.3" r="0.3"/>
			<circle fill="#FFFFFF" cx="808.5" cy="636.8" r="0.3"/>
		</g>
		<g>
			<circle fill="#FFFFFF" cx="868.8" cy="638.3" r="9.4"/>
			<circle cx="868.8" cy="638.3" r="8"/>
			<circle fill="#FFFFFF" cx="868.8" cy="638.3" r="5.2"/>
			<g>
				<path fill="#939598" d="M871.6,639.1h2.3c0-0.3,0.1-0.5,0.1-0.8c0-0.3,0-0.5-0.1-0.8h-2.3c-0.4,0-0.6-0.4-0.3-0.7l1.6-1.6
					c-0.3-0.4-0.7-0.8-1.1-1.1l-1.6,1.6c-0.3,0.3-0.7,0.1-0.7-0.3v-2.3c-0.3,0-0.5-0.1-0.8-0.1c-0.3,0-0.5,0-0.8,0.1v2.3
					c0,0.4-0.4,0.6-0.7,0.3l-1.6-1.6c-0.4,0.3-0.8,0.7-1.1,1.1l1.6,1.6c0.3,0.3,0.1,0.7-0.3,0.7h-2.3c0,0.3-0.1,0.5-0.1,0.8
					c0,0.3,0,0.5,0.1,0.8h2.3c0.4,0,0.6,0.4,0.3,0.7l-1.6,1.6c0.3,0.4,0.7,0.8,1.1,1.1l1.6-1.6c0.3-0.3,0.7-0.1,0.7,0.3v2.3
					c0.3,0,0.5,0.1,0.8,0.1c0.3,0,0.5,0,0.8-0.1v-2.3c0-0.4,0.4-0.6,0.7-0.3l1.6,1.6c0.4-0.3,0.8-0.7,1.1-1.1l-1.6-1.6
					C871.1,639.5,871.3,639.1,871.6,639.1z"/>
			</g>
			<circle fill="#FFFFFF" cx="868.8" cy="636.1" r="0.3"/>
			<circle fill="#FFFFFF" cx="870.3" cy="636.8" r="0.3"/>
			<circle fill="#FFFFFF" cx="870.9" cy="638.3" r="0.3"/>
			<circle fill="#FFFFFF" cx="870.3" cy="639.8" r="0.3"/>
			<circle fill="#FFFFFF" cx="868.8" cy="640.4" r="0.3"/>
			<circle fill="#FFFFFF" cx="867.3" cy="639.8" r="0.3"/>
			<circle fill="#FFFFFF" cx="866.6" cy="638.3" r="0.3"/>
			<circle fill="#FFFFFF" cx="867.3" cy="636.8" r="0.3"/>
		</g>
	</g>
	<rect x="900.2" y="589.4" width="17" height="4.7"/>
	<rect x="900.2" y="601.4" width="32.1" height="4.7"/>
	<rect x="900.2" y="613.3" width="24.6" height="4.7"/>
	<rect x="900.2" y="625.2" width="50.5" height="4.7"/>
	<rect x="900.2" y="637.2" width="26.8" height="4.7"/>
	<rect x="900.2" y="649.1" width="43.7" height="4.7"/>
	<rect x="900.2" y="661" width="7.6" height="4.7"/>
</g>
<g>
	<g>
		<g>
			<path fill="#8DC63F" d="M1057.1,712.7v-14c0-6,4.3-11.1,10.1-12.3l66.1-12.6l18-18.4c5-5.1,11.9-7.9,19-7.6l40.1,1.3
				c12.8,0.4,24.6,6.7,32.1,17.1l1.8,2.4c2.4,3.4,5.9,5.9,9.8,7.3l15.3,5.5c3.6,1.3,6,4.7,6,8.5v22.7c0,3.9-3.2,7.1-7.1,7.1h-204.1
				C1060.2,719.8,1057.1,716.6,1057.1,712.7z"/>
		</g>
		<g>
			<path fill="#669A40" d="M1254,704.7c-4.7-5.9-11.9-9.7-20-9.7s-15.3,3.8-20,9.7h-92.4c-4.7-5.9-11.9-9.7-20-9.7
				c-8.1,0-15.3,3.8-20,9.7h-24.7v7.9c0,3.9,3.2,7.1,7.1,7.1h12.2h50.8h81.5h50.8h8.8c3.9,0,7.1-3.2,7.1-7.1v-7.9H1254z"/>
		</g>
		<g>
			<path fill="#FFFFFF" d="M1216.4,676.7h30.4c-2.2-1.6-4.1-3.5-5.7-5.7l-1.8-2.4c-6.4-8.8-16-14.2-26.7-15.2v19.5
				C1212.6,675,1214.3,676.7,1216.4,676.7z"/>
		</g>
		<g>
			<path fill="#FFFFFF" d="M1208.6,653.1l-31.1-1v20.8c0,2.1,1.7,3.8,3.8,3.8h23.6c2.1,0,3.8-1.7,3.8-3.8V653.1z"/>
		</g>
		<g>
			<path fill="#FFFFFF" d="M1173.5,652l-3.3-0.1c-0.3,0-0.6,0-0.8,0c-5.8,0-11.2,2.4-15.3,6.5l-17.9,18.3h33.5
				c2.1,0,3.8-1.7,3.8-3.8V652z"/>
		</g>
		<g>
			<path fill="#FFFFFF" d="M1077.7,690.9h-11.4c-3.1,1.3-5.2,4.3-5.2,7.8v1.4h16.6V690.9z"/>
		</g>
		<g>
			<path fill="#FFFFFF" d="M1261.4,700.7c0.3,0.2,0.6,0.3,0.8,0.5h9v-10c0-3.1-2.5-5.5-5.5-5.5h-13.3
				C1252.9,691.6,1256.2,697.5,1261.4,700.7z"/>
		</g>
		<g>
			<path fill="#FFFFFF" d="M1076.5,704.1h-14.1c-0.7,0-1.2,0.5-1.2,1.2l0,0c0,0.7,0.5,1.2,1.2,1.2h14.1c0.7,0,1.2-0.5,1.2-1.2l0,0
				C1077.7,704.6,1077.2,704.1,1076.5,704.1z"/>
		</g>
		<g>
			<g>
				<circle fill="#FFFFFF" cx="1101.7" cy="720.5" r="21.1"/>
			</g>
			<g>
				<circle cx="1101.7" cy="720.5" r="18.1"/>
			</g>
			<g>
				<circle fill="#FFFFFF" cx="1101.7" cy="720.5" r="11.7"/>
			</g>
			<g>
				<g>
					<path fill="#939598" d="M1108.2,722.2h5.1c0.1-0.6,0.1-1.1,0.1-1.7c0-0.6,0-1.2-0.1-1.7h-5.1c-0.8,0-1.2-1-0.7-1.6l3.6-3.6
						c-0.7-0.9-1.5-1.8-2.4-2.4l-3.6,3.6c-0.6,0.6-1.6,0.2-1.6-0.7v-5.1c-0.6-0.1-1.1-0.1-1.7-0.1s-1.2,0-1.7,0.1v5.1
						c0,0.8-1,1.2-1.6,0.7l-3.6-3.6c-0.9,0.7-1.8,1.5-2.4,2.4l3.6,3.6c0.6,0.6,0.2,1.6-0.7,1.6h-5.1c-0.1,0.6-0.1,1.1-0.1,1.7
						c0,0.6,0,1.2,0.1,1.7h5.1c0.8,0,1.2,1,0.7,1.6l-3.6,3.6c0.7,0.9,1.5,1.8,2.4,2.4l3.6-3.6c0.6-0.6,1.6-0.2,1.6,0.7v5.1
						c0.6,0.1,1.1,0.1,1.7,0.1s1.2,0,1.7-0.1v-5.1c0-0.8,1-1.2,1.6-0.7l3.6,3.6c0.9-0.7,1.8-1.5,2.4-2.4l-3.6-3.6
						C1106.9,723.2,1107.3,722.2,1108.2,722.2z"/>
				</g>
			</g>
			<g>
				<circle fill="#FFFFFF" cx="1101.7" cy="715.6" r="0.7"/>
			</g>
			<g>
				<circle fill="#FFFFFF" cx="1105.2" cy="717" r="0.7"/>
			</g>
			<g>
				<circle fill="#FFFFFF" cx="1106.6" cy="720.5" r="0.7"/>
			</g>
			<g>
				<circle fill="#FFFFFF" cx="1105.2" cy="723.9" r="0.7"/>
			</g>
			<g>
				<circle fill="#FFFFFF" cx="1101.7" cy="725.3" r="0.7"/>
			</g>
			<g>
				<circle fill="#FFFFFF" cx="1098.3" cy="723.9" r="0.7"/>
			</g>
			<g>
				<circle fill="#FFFFFF" cx="1096.9" cy="720.5" r="0.7"/>
			</g>
			<g>
				<circle fill="#FFFFFF" cx="1098.3" cy="717" r="0.7"/>
			</g>
		</g>
		<g>
			<g>
				<circle fill="#FFFFFF" cx="1234.1" cy="720.5" r="21.1"/>
			</g>
			<g>
				<circle cx="1234.1" cy="720.5" r="18.1"/>
			</g>
			<g>
				<circle fill="#FFFFFF" cx="1234.1" cy="720.5" r="11.7"/>
			</g>
			<g>
				<g>
					<path fill="#939598" d="M1240.5,722.2h5.1c0.1-0.6,0.1-1.1,0.1-1.7c0-0.6,0-1.2-0.1-1.7h-5.1c-0.8,0-1.2-1-0.7-1.6l3.6-3.6
						c-0.7-0.9-1.5-1.8-2.4-2.4l-3.6,3.6c-0.6,0.6-1.6,0.2-1.6-0.7v-5.1c-0.6-0.1-1.1-0.1-1.7-0.1s-1.2,0-1.7,0.1v5.1
						c0,0.8-1,1.2-1.6,0.7l-3.6-3.6c-0.9,0.7-1.8,1.5-2.4,2.4l3.6,3.6c0.6,0.6,0.2,1.6-0.7,1.6h-5.1c-0.1,0.6-0.1,1.1-0.1,1.7
						c0,0.6,0,1.2,0.1,1.7h5.1c0.8,0,1.2,1,0.7,1.6l-3.6,3.6c0.7,0.9,1.5,1.8,2.4,2.4l3.6-3.6c0.6-0.6,1.6-0.2,1.6,0.7v5.1
						c0.6,0.1,1.1,0.1,1.7,0.1s1.2,0,1.7-0.1v-5.1c0-0.8,1-1.2,1.6-0.7l3.6,3.6c0.9-0.7,1.8-1.5,2.4-2.4l-3.6-3.6
						C1239.2,723.2,1239.7,722.2,1240.5,722.2z"/>
				</g>
			</g>
			<g>
				<circle fill="#FFFFFF" cx="1234.1" cy="715.6" r="0.7"/>
			</g>
			<g>
				<circle fill="#FFFFFF" cx="1237.5" cy="717" r="0.7"/>
			</g>
			<g>
				<circle fill="#FFFFFF" cx="1238.9" cy="720.5" r="0.7"/>
			</g>
			<g>
				<circle fill="#FFFFFF" cx="1237.5" cy="723.9" r="0.7"/>
			</g>
			<g>
				<circle fill="#FFFFFF" cx="1234.1" cy="725.3" r="0.7"/>
			</g>
			<g>
				<circle fill="#FFFFFF" cx="1230.6" cy="723.9" r="0.7"/>
			</g>
			<g>
				<circle fill="#FFFFFF" cx="1229.2" cy="720.5" r="0.7"/>
			</g>
			<g>
				<circle fill="#FFFFFF" cx="1230.6" cy="717" r="0.7"/>
			</g>
		</g>
	</g>
	<g>
		<polygon fill="#8DC63F" points="1177.5,611.2 1110.7,611.2 1110.7,618.2 1177.5,618.2 1244.2,618.2 1244.2,611.2 		"/>
	</g>
	<g>
		<polygon fill="#8DC63F" points="1187.7,571.6 1177.5,571.6 1167.2,571.6 1115.4,604.7 1115.4,607.6 1177.5,607.6 1239.6,607.6 
			1239.6,604.7 		"/>
	</g>
	<g>
		<path fill="#8DC63F" d="M1173.5,643.2c-1.2,0-2.2-1-2.2-2.2v-17.6c0-1.2,1-2.2,2.2-2.2s2.2,1,2.2,2.2v17.6
			C1175.6,642.3,1174.7,643.2,1173.5,643.2z"/>
	</g>
	<g>
		<path fill="#8DC63F" d="M1185,643.2c-1.2,0-2.2-1-2.2-2.2v-17.6c0-1.2,1-2.2,2.2-2.2s2.2,1,2.2,2.2v17.6
			C1187.2,642.3,1186.2,643.2,1185,643.2z"/>
	</g>
	<g>
		<path fill="#8DC63F" d="M1196.6,643.2c-1.2,0-2.2-1-2.2-2.2v-17.6c0-1.2,1-2.2,2.2-2.2s2.2,1,2.2,2.2v17.6
			C1198.7,642.3,1197.8,643.2,1196.6,643.2z"/>
	</g>
	<g>
		<path fill="#8DC63F" d="M1208.2,643.2c-1.2,0-2.2-1-2.2-2.2v-17.6c0-1.2,1-2.2,2.2-2.2c1.2,0,2.2,1,2.2,2.2v17.6
			C1210.3,642.3,1209.3,643.2,1208.2,643.2z"/>
	</g>
	<g>
		<path fill="#8DC63F" d="M1219.7,643.2c-1.2,0-2.2-1-2.2-2.2v-17.6c0-1.2,1-2.2,2.2-2.2c1.2,0,2.2,1,2.2,2.2v17.6
			C1221.9,642.3,1220.9,643.2,1219.7,643.2z"/>
	</g>
	<g>
		<path fill="#8DC63F" d="M1231.3,643.2c-1.2,0-2.2-1-2.2-2.2v-17.6c0-1.2,1-2.2,2.2-2.2s2.2,1,2.2,2.2v17.6
			C1233.4,642.3,1232.5,643.2,1231.3,643.2z"/>
	</g>
	<g>
		<path fill="#8DC63F" d="M1161.9,643.2c-1.2,0-2.2-1-2.2-2.2v-17.6c0-1.2,1-2.2,2.2-2.2c1.2,0,2.2,1,2.2,2.2v17.6
			C1164.1,642.3,1163.1,643.2,1161.9,643.2z"/>
	</g>
	<g>
		<path fill="#8DC63F" d="M1150.3,643.2c-1.2,0-2.2-1-2.2-2.2v-17.6c0-1.2,1-2.2,2.2-2.2c1.2,0,2.2,1,2.2,2.2v17.6
			C1152.5,642.3,1151.5,643.2,1150.3,643.2z"/>
	</g>
	<g>
		<path fill="#8DC63F" d="M1138.8,643.2c-1.2,0-2.2-1-2.2-2.2v-17.6c0-1.2,1-2.2,2.2-2.2c1.2,0,2.2,1,2.2,2.2v17.6
			C1140.9,642.3,1140,643.2,1138.8,643.2z"/>
	</g>
	<g>
		<path fill="#8DC63F" d="M1127.2,643.2c-1.2,0-2.2-1-2.2-2.2v-17.6c0-1.2,1-2.2,2.2-2.2s2.2,1,2.2,2.2v17.6
			C1129.4,642.3,1128.4,643.2,1127.2,643.2z"/>
	</g>
	<g>
		<path fill="#8DC63F" d="M1115.7,643.2c-1.2,0-2.2-1-2.2-2.2v-17.6c0-1.2,1-2.2,2.2-2.2s2.2,1,2.2,2.2v17.6
			C1117.8,642.3,1116.9,643.2,1115.7,643.2z"/>
	</g>
</g>
</svg>
